<svg width="27" height="25" viewBox="0 0 27 25" fill="none" xmlns="http://www.w3.org/2000/svg">
<path d="M18.5 8.26316C20.4891 8.26316 22.3968 9.02838 23.8033 10.3905C25.2098 11.7526 26 13.6 26 15.5263V24H21V15.5263C21 14.8842 20.7366 14.2684 20.2678 13.8144C19.7989 13.3603 19.163 13.1053 18.5 13.1053C17.837 13.1053 17.2011 13.3603 16.7322 13.8144C16.2634 14.2684 16 14.8842 16 15.5263V24H11V15.5263C11 13.6 11.7902 11.7526 13.1967 10.3905C14.6032 9.02838 16.5109 8.26316 18.5 8.26316Z" stroke="black" stroke-width="2" stroke-linecap="round" stroke-linejoin="round"/>
<path d="M6 9.47368H1V24H6V9.47368Z" stroke="black" stroke-width="2" stroke-linecap="round" stroke-linejoin="round"/>
<path d="M3.5 5.84211C4.88071 5.84211 6 4.75816 6 3.42105C6 2.08394 4.88071 1 3.5 1C2.11929 1 1 2.08394 1 3.42105C1 4.75816 2.11929 5.84211 3.5 5.84211Z" stroke="black" stroke-width="2" stroke-linecap="round" stroke-linejoin="round"/>
</svg>
